# xmcd
#
# Track frame offsets: 
#        150
#        18170
#        53027
#
# Disc length: 954 seconds
#
# Revision: 5
# Processed by: cddbd v1.5.2PL0 Copyright (c) Steve Scherf et al.
# Submitted via: ExactAudioCopy v0.99pb4
#
DISCID=1803b803
DTITLE=Bobby Brown - Every Little Step
DYEAR=1989
DGENRE=R&B
TTITLE0=Every Little Step
TTITLE1=Every Little Step (Extended Version)
TTITLE2=Every Little Step (With Rap)
EXTD=
EXTT0=
EXTT1=
EXTT2=
PLAYORDER=
